<?xml version="1.0" encoding="UTF-8" standalone="no"?>
<svg width="142px" height="54px" viewBox="0 0 142 54" version="1.1" xmlns="http://www.w3.org/2000/svg" xmlns:xlink="http://www.w3.org/1999/xlink">
    <!-- Generator: Sketch 45.1 (43504) - http://www.bohemiancoding.com/sketch -->
    <title>SAGE-logo-SVG</title>
    <desc>Created with Sketch.</desc>
    <defs></defs>
    <g id="Page-1" stroke="none" stroke-width="1" fill="none" fill-rule="evenodd">
        <g id="DESKTOP---on-hover" transform="translate(-184.000000, -74.000000)" fill-rule="nonzero" fill="#26358C">
            <g id="New-header">
                <g id="SAGE-logo-SVG" transform="translate(184.000000, 74.000000)">
                    <g id="Group">
                        <path d="M16.315082,0 C25.167541,0 32.6301639,9.33934426 32.6301639,20.732459 C32.6301639,32.1255738 25.1852459,41.5268852 16.315082,41.5268852 C7.25016393,41.5268852 0,32.2052459 0,20.732459 C0,9.25967213 7.25016393,0 16.315082,0 M16.4213115,1.15967213 C9.16229508,1.15967213 3.24885246,10.0121311 3.24885246,20.635082 C3.24885246,31.4527869 9.16229508,40.1104918 16.4213115,40.1104918 C23.6803279,40.1104918 29.584918,31.435082 29.584918,20.635082 C29.584918,10.0121311 23.662623,1.15967213 16.4213115,1.15967213" id="Shape"></path>
                        <path d="M26.5042623,14.9783607 C26.3183607,11.1186885 22.2462295,5.14327869 16.8639344,4.93967213 L16.8639344,15.447541 L26.0527869,15.447541 C26.1787767,15.4557142 26.3020754,15.4085891 26.3904966,15.3184675 C26.4789179,15.2283458 26.5236861,15.104172 26.5131148,14.9783607" id="Shape"></path>
                        <path d="M26.5042623,26.4245902 C26.5036861,26.2069855 26.4141292,25.9990855 26.2563934,25.8491803 L15.7662295,15.3236066 L15.7662295,4.93081967 C10.357377,5.14327869 6.34721311,11.127541 6.12590164,15.0137705 C6.10796971,15.2432155 6.19602668,15.46825 6.36491803,15.6245902 L16.8639344,26.247541 L16.8639344,36.622623 C22.3081967,36.4101639 26.3980328,30.3019672 26.5042623,26.4511475" id="Shape"></path>
                        <path d="M6.12590164,26.557377 C6.33836066,30.4170492 10.3927869,36.3570492 15.7662295,36.5606557 L15.7662295,26.0881967 L6.56852459,26.0881967 C6.43644596,26.0765859 6.30674174,26.1286203 6.2193082,26.2282945 C6.13187466,26.3279687 6.09718206,26.4633467 6.12590164,26.5927869" id="Shape"></path>
                        <path d="M55.2304918,14.1639344 C55.0091803,9.26852459 50.9547541,7.72819672 47.3872131,7.72819672 C44.7314754,7.72819672 40.1547541,8.48065574 40.1547541,13.2786885 C40.1547541,15.9344262 42.0491803,16.8196721 43.8993443,17.2888525 L52.9377049,19.3603279 C57.0363934,20.3340984 60.1170492,22.795082 60.1170492,27.8232787 C60.1170492,35.312459 53.1501639,37.3839344 47.7236066,37.3839344 C41.8632787,37.3839344 39.5704918,35.6134426 38.1629508,34.347541 C35.5072131,31.9219672 34.9495082,29.275082 34.9495082,26.3272131 L38.9508197,26.3272131 C38.9508197,32.0547541 43.624918,33.7278689 47.6793443,33.7278689 C50.7688525,33.7278689 55.9652459,32.9311475 55.9652459,28.4163934 C55.9652459,25.1055738 54.424918,24.0521311 49.2196721,22.8216393 L42.7396721,21.3255738 C40.6681967,20.8386885 35.9940984,19.3868852 35.9940984,13.8718033 C35.9940984,8.93213115 39.207541,4.08983607 46.882623,4.08983607 C57.9481967,4.08983607 59.0459016,10.702623 59.2229508,14.1816393 L55.2304918,14.1639344 Z" id="Shape"></path>
                        <path d="M101.024262,19.6613115 L114.904918,19.6613115 L114.904918,36.5872131 L111.248852,36.5872131 L111.116066,32.4885246 C108.606748,35.6887974 104.73589,37.5192543 100.670164,37.4281967 C95.252459,37.4281967 92.6055738,35.4452459 90.932459,33.8872131 C86.0813115,29.3016393 85.9485246,23.8839344 85.9485246,20.5288525 C85.9485246,12.8183607 90.622623,4.13409836 100.935738,4.13409836 C106.840328,4.13409836 113.408852,7.48032787 114.338361,14.58 L110.19541,14.58 C108.832131,9.07377049 104.202295,7.92295082 100.714426,7.92295082 C95.0311475,7.92295082 90.3570492,12.4642623 90.3570492,20.7501639 C90.3570492,27.1859016 92.4727869,33.7986885 100.891475,33.7986885 C103.221173,33.8946098 105.511807,33.1780043 107.371475,31.7714754 C110.151148,29.5672131 110.850492,26.7432787 110.850492,23.3527869 L101.024262,23.3527869 L101.024262,19.6613115 Z" id="Shape"></path>
                    </g>
                    <polygon id="Shape" points="117.905902 4.93967213 117.905902 36.5872131 141.267541 36.5872131 141.267541 32.7983607 122.181639 32.7983607 122.181639 22.2196721 139.505902 22.2196721 139.505902 18.4219672 122.181639 18.4219672 122.181639 8.72852459 140.957705 8.72852459 140.957705 4.93967213"></polygon>
                    <path d="M68.5445902,23.5829508 L73.6170492,9.65803279 L73.7055738,9.65803279 L78.3796721,23.5829508 L68.5445902,23.5829508 Z M79.92,27.3718033 L83.044918,36.5872131 L87.7190164,36.5872131 L76.255082,4.93967213 L71.4039344,4.93967213 L59.5062295,36.5872131 L63.932459,36.5872131 L67.2344262,27.3718033 L79.92,27.3718033 Z" id="Shape"></path>
                    <path d="M83.16,50.3527869 L84.4701639,50.3527869 L84.4701639,46.324918 L87.48,46.324918 C88.2917516,46.441695 89.1119211,46.1768853 89.7021169,45.6074589 C90.2923126,45.0380325 90.5863223,44.2278717 90.4986885,43.412459 C90.4986885,41.5888525 89.4363934,40.5 87.48,40.5 L83.16,40.5 L83.16,50.3527869 Z M84.4701639,41.6065574 L87.037377,41.6065574 C88.5157377,41.6065574 89.1885246,42.2439344 89.1885246,43.3770492 C89.1885246,44.5101639 88.5157377,45.2006557 87.037377,45.147541 L84.4701639,45.147541 L84.4701639,41.6065574 Z M97.2442623,43.2177049 L96.0757377,43.2177049 L96.0757377,47.2455738 C96.1449407,47.8337922 95.9499588,48.4224411 95.5432886,48.8530331 C95.1366185,49.283625 94.5600626,49.5118985 93.9688525,49.4763934 C93.5780403,49.5082869 93.1927574,49.36812 92.9137971,49.0925616 C92.6348367,48.8170032 92.4899532,48.4334691 92.5170492,48.0422951 L92.5170492,43.2177049 L91.3396721,43.2177049 L91.3396721,47.9095082 C91.3396721,49.4409836 91.915082,50.5209836 93.7918033,50.5209836 C94.7499307,50.5754817 95.6534227,50.0720091 96.1111475,49.2285246 L96.1111475,49.2285246 L96.1111475,50.3616393 L97.2177049,50.3616393 L97.2442623,43.2177049 Z M104.131475,46.7586885 C104.131475,48.1485246 103.591475,49.5206557 101.98918,49.5206557 C100.386885,49.5206557 99.7406557,48.2281967 99.7406557,46.8206557 C99.7406557,45.4131148 100.351475,44.164918 101.918361,44.164918 C103.485246,44.164918 104.122623,45.4662295 104.122623,46.8206557 L104.131475,46.7586885 Z M98.607541,50.4501639 L99.7760656,50.4501639 L99.7760656,49.4940984 L99.7760656,49.4940984 C100.311509,50.2237746 101.17321,50.641368 102.077705,50.6095082 C104.25541,50.6095082 105.33541,48.9098361 105.33541,46.9003279 C105.33541,44.8908197 104.246557,43.1468852 102.051148,43.1468852 C101.138571,43.0588351 100.255608,43.4985986 99.7760656,44.28 L99.7760656,44.28 L99.7760656,40.597377 L98.607541,40.597377 L98.607541,50.4501639 Z M106.41541,50.4501639 L107.592787,50.4501639 L107.592787,40.5088525 L106.41541,40.5088525 L106.41541,50.4501639 Z M108.97377,50.4501639 L110.151148,50.4501639 L110.151148,43.315082 L108.97377,43.315082 L108.97377,50.4501639 Z M110.151148,40.597377 L108.97377,40.597377 L108.97377,42.0314754 L110.151148,42.0314754 L110.151148,40.597377 Z M111.098361,48.2016393 C111.16918,49.9721311 112.523607,50.6183607 114.117049,50.6183607 C115.568852,50.6183607 117.153443,50.0695082 117.153443,48.3698361 C117.153443,46.9888525 115.99377,46.5993443 114.825246,46.342623 C113.656721,46.0859016 112.497049,45.9442623 112.497049,45.1032787 C112.497049,44.2622951 113.311475,44.2180328 114.01082,44.2180328 C114.710164,44.2180328 115.586557,44.5101639 115.66623,45.4131148 L116.852459,45.4131148 C116.755082,43.642623 115.498033,43.1822951 113.931148,43.1822951 C112.691803,43.1822951 111.27541,43.7754098 111.27541,45.2095082 C111.27541,46.6436066 112.443934,46.98 113.603607,47.2278689 C114.763279,47.4757377 115.931803,47.6439344 115.931803,48.5557377 C115.931803,49.467541 114.940328,49.6180328 114.205574,49.6180328 C113.240656,49.6180328 112.328852,49.2904918 112.28459,48.2370492 L111.098361,48.2016393 Z M118.065246,50.4501639 L119.23377,50.4501639 L119.23377,46.4222951 C119.164567,45.8340766 119.359549,45.2454277 119.76622,44.8148358 C120.17289,44.3842439 120.749446,44.1559703 121.340656,44.1914754 C121.731468,44.1595819 122.116751,44.2997488 122.395711,44.5753072 C122.674671,44.8508656 122.819555,45.2343997 122.792459,45.6255738 L122.792459,50.4501639 L123.934426,50.4501639 L123.934426,45.7583607 C123.934426,44.2268852 123.359016,43.1557377 121.482295,43.1557377 C120.562903,43.0984289 119.690887,43.5687679 119.23377,44.3685246 L119.23377,44.3685246 L119.23377,40.597377 L118.065246,40.597377 L118.065246,50.4501639 Z M125.341967,50.4501639 L126.519344,50.4501639 L126.519344,43.315082 L125.341967,43.315082 L125.341967,50.4501639 Z M126.519344,40.597377 L125.341967,40.597377 L125.341967,42.0314754 L126.519344,42.0314754 L126.519344,40.597377 Z M127.87377,50.4501639 L129.042295,50.4501639 L129.042295,46.4222951 C128.973092,45.8340766 129.168074,45.2454277 129.574744,44.8148358 C129.981414,44.3842439 130.55797,44.1559703 131.14918,44.1914754 C131.539992,44.1595819 131.925275,44.2997488 132.204236,44.5753072 C132.483196,44.8508656 132.62808,45.2343997 132.600984,45.6255738 L132.600984,50.4501639 L133.769508,50.4501639 L133.769508,45.7583607 C133.769508,44.2268852 133.194098,43.1557377 131.317377,43.1557377 C130.357302,43.1029349 129.453307,43.6101383 128.998033,44.4570492 L128.998033,44.4570492 L128.998033,43.3239344 L127.891475,43.3239344 L127.87377,50.4501639 Z M137.983279,49.4940984 C136.442951,49.4940984 135.97377,48.06 135.97377,46.7763934 C135.97377,45.4927869 136.58459,44.182623 138.080656,44.182623 C139.576721,44.182623 140.107869,45.4839344 140.107869,46.7321311 C140.107869,47.9803279 139.532459,49.4940984 137.983279,49.4940984 L137.983279,49.4940984 Z M141.267541,43.297377 L140.160984,43.297377 L140.160984,44.2622951 L140.160984,44.2622951 C139.732209,43.4988142 138.911313,43.0404806 138.036393,43.0760656 C135.566557,43.0760656 134.743279,45.1563934 134.743279,46.8383607 C134.743279,48.7859016 135.805574,50.4501639 137.930164,50.4501639 C138.860266,50.4926746 139.729255,49.9872069 140.152131,49.1577049 L140.152131,49.1577049 L140.152131,49.5737705 C140.152131,51.1760656 139.541311,52.282623 138.009836,52.282623 C137.239672,52.282623 136.239344,51.9816393 136.159672,51.1229508 L135,51.1229508 C135.07082,52.6809836 136.611148,53.2209836 137.956721,53.2209836 C140.205246,53.2209836 141.267541,52.0347541 141.267541,49.68 L141.267541,43.297377 Z" id="Shape"></path>
                </g>
            </g>
        </g>
    </g>
</svg>